<?xml version="1.0" encoding="utf-8"?><!-- Uploaded to: SVG Repo, www.svgrepo.com, Generator: SVG Repo Mixer Tools -->
<svg width="800px" height="800px" viewBox="0 0 128 128" xmlns="http://www.w3.org/2000/svg" xmlns:xlink="http://www.w3.org/1999/xlink" aria-hidden="true" role="img" class="iconify iconify--noto" preserveAspectRatio="xMidYMid meet"><radialGradient id="IconifyId17ecdb2904d178eab8725" cx="63.975" cy="60.603" r="82.465" gradientUnits="userSpaceOnUse"><stop offset=".285" stop-color="#004fa3"></stop><stop offset=".393" stop-color="#014d9e"></stop><stop offset=".524" stop-color="#04468f"></stop><stop offset=".667" stop-color="#083b77"></stop><stop offset=".818" stop-color="#0f2b54"></stop><stop offset=".974" stop-color="#171729"></stop><stop offset=".977" stop-color="#171728"></stop></radialGradient><path d="M116.63 124.22H11.32c-4.15 0-7.52-3.37-7.52-7.52V11.39c0-4.15 3.37-7.52 7.52-7.52h105.3c4.15 0 7.52 3.37 7.52 7.52v105.3a7.511 7.511 0 0 1-7.51 7.53z" fill="url(#IconifyId17ecdb2904d178eab8725)"></path><radialGradient id="IconifyId17ecdb2904d178eab8726" cx="67.085" cy="54.878" r="11.61" gradientUnits="userSpaceOnUse"><stop offset="0" stop-color="#feb1da"></stop><stop offset=".447" stop-color="#f086d2"></stop><stop offset=".993" stop-color="#dd4cc8"></stop></radialGradient><path d="M68.41 53.09c1.36.37.93-5.57 5.2-8.18c3.44-2.11 7.46-1 7.08-4.32c-.25-2.21-6.07-2.3-10.11 1.28c-3.99 3.55-3.16 10.95-2.17 11.22z" fill="url(#IconifyId17ecdb2904d178eab8726)"></path><radialGradient id="IconifyId17ecdb2904d178eab8727" cx="71.389" cy="57.61" r="12.799" gradientUnits="userSpaceOnUse"><stop offset="0" stop-color="#feb1da"></stop><stop offset=".447" stop-color="#f086d2"></stop><stop offset=".993" stop-color="#dd4cc8"></stop></radialGradient><path d="M73.16 56.71c1.16.99 3.62-3.76 8.88-3.59c4.21.14 6.18 4.68 8.42 2.59c2.55-2.38-1.2-6.37-6.95-6.77c-7.65-.54-11.62 6.69-10.35 7.77z" fill="url(#IconifyId17ecdb2904d178eab8727)"></path><radialGradient id="IconifyId17ecdb2904d178eab8728" cx="72.888" cy="61.481" r="10.723" gradientUnits="userSpaceOnUse"><stop offset="0" stop-color="#feb1da"></stop><stop offset=".447" stop-color="#f086d2"></stop><stop offset=".993" stop-color="#dd4cc8"></stop></radialGradient><path d="M74.44 61.97c.12.85 6.36.5 10.69 3.49c4.32 2.99 5.44 6.6 7.99 5.94c2.55-.67 1.24-4.98-4.1-8.38c-5.81-3.72-14.94-3.58-14.58-1.05z" fill="url(#IconifyId17ecdb2904d178eab8728)"></path><radialGradient id="IconifyId17ecdb2904d178eab8729" cx="73.852" cy="66.383" r="7.738" gradientUnits="userSpaceOnUse"><stop offset="0" stop-color="#feb1da"></stop><stop offset=".447" stop-color="#f086d2"></stop><stop offset=".993" stop-color="#dd4cc8"></stop></radialGradient><path d="M75.32 67.35c-.67.78.06 1.28 2.66 4.05s3.88 4.27 4.99 5.27c1.05.95 2.5 1.23 3.22.55c1.05-1-.49-2.97-1.69-4.21c-1.66-1.72-4.36-3.76-5.52-4.48c-1.14-.69-3.05-1.89-3.66-1.18z" fill="url(#IconifyId17ecdb2904d178eab8729)"></path><radialGradient id="IconifyId17ecdb2904d178eab8730" cx="68.529" cy="66.368" r="18.43" gradientUnits="userSpaceOnUse"><stop offset="0" stop-color="#feb1da"></stop><stop offset=".447" stop-color="#f086d2"></stop><stop offset=".993" stop-color="#dd4cc8"></stop></radialGradient><path d="M68.14 67.09c-.58.19.2 2.01.7 4.77c.31 1.73.75 3.12 1.07 8.97c.36 6.73-.74 9.8 2.59 9.84c3.53.05 2.13-7.3 1.48-11.06c-.73-4.2-1.58-7-2.53-8.96c-.86-1.77-2.47-3.83-3.31-3.56z" fill="url(#IconifyId17ecdb2904d178eab8730)"></path><radialGradient id="IconifyId17ecdb2904d178eab8731" cx="62.974" cy="69.799" r="13.978" gradientUnits="userSpaceOnUse"><stop offset="0" stop-color="#feb1da"></stop><stop offset=".447" stop-color="#f086d2"></stop><stop offset=".993" stop-color="#dd4cc8"></stop></radialGradient><path d="M63.14 71.15c-1.16-.25-2.61 2.53-3.94 6.92c-1.39 4.62-2.13 8.58.66 8.95c3.6.48 3.22-4.33 3.49-8.41c.21-3.17.56-7.29-.21-7.46z" fill="url(#IconifyId17ecdb2904d178eab8731)"></path><radialGradient id="IconifyId17ecdb2904d178eab8732" cx="57.601" cy="65.454" r="16.234" gradientUnits="userSpaceOnUse"><stop offset="0" stop-color="#feb1da"></stop><stop offset=".447" stop-color="#f086d2"></stop><stop offset=".993" stop-color="#dd4cc8"></stop></radialGradient><path d="M60.24 66.35c-1.41-1.06-7.11 2.78-9.95 7.03c-3.12 4.66-5.73 11.66-2.33 11.9c3.7.26 3.1-4.73 5.83-9.78c3.28-6.06 7.13-8.64 6.45-9.15z" fill="url(#IconifyId17ecdb2904d178eab8732)"></path><radialGradient id="IconifyId17ecdb2904d178eab8733" cx="53.366" cy="64.423" r="9.303" gradientUnits="userSpaceOnUse"><stop offset="0" stop-color="#feb1da"></stop><stop offset=".447" stop-color="#f086d2"></stop><stop offset=".993" stop-color="#dd4cc8"></stop></radialGradient><path d="M52.72 65.28c.38.68-2.65 2.65-5.03 4.97s-4.92 6.14-6.24 4.81c-1.32-1.32-.58-3.89 2.12-6.74c3.31-3.51 8.56-4.1 9.15-3.04z" fill="url(#IconifyId17ecdb2904d178eab8733)"></path><radialGradient id="IconifyId17ecdb2904d178eab8734" cx="54.647" cy="61.428" r="12.552" gradientUnits="userSpaceOnUse"><stop offset="0" stop-color="#feb1da"></stop><stop offset=".447" stop-color="#f086d2"></stop><stop offset=".993" stop-color="#dd4cc8"></stop></radialGradient><path d="M35.73 65.97c2.02 1.33 2.99-4.43 7.92-4.9c4.86-.46 9.75 1.14 10.19.02c.34-.85-5.11-3.71-11.04-2.89c-6.16.86-9.72 6.02-7.07 7.77z" fill="url(#IconifyId17ecdb2904d178eab8734)"></path><radialGradient id="IconifyId17ecdb2904d178eab8735" cx="57.166" cy="54.427" r="10.847" gradientUnits="userSpaceOnUse"><stop offset="0" stop-color="#feb1da"></stop><stop offset=".447" stop-color="#f086d2"></stop><stop offset=".993" stop-color="#dd4cc8"></stop></radialGradient><path d="M58.59 56.98c1.27-.53-.74-10.03-9.78-10.45c-8.09-.38-10.74 5.43-9.1 7.33c1.35 1.57 4.74-2.95 8.95-2.97c7.58-.04 8.45 6.7 9.93 6.09z" fill="url(#IconifyId17ecdb2904d178eab8735)"></path><radialGradient id="IconifyId17ecdb2904d178eab8736" cx="63.039" cy="53.377" r="9.909" gradientUnits="userSpaceOnUse"><stop offset="0" stop-color="#feb1da"></stop><stop offset=".447" stop-color="#f086d2"></stop><stop offset=".993" stop-color="#dd4cc8"></stop></radialGradient><path d="M54.5 39.79c-1.06.95-.68 2.83 2.79 5.16c3.52 2.36 3.46 7.14 4.67 7.08c1.22-.05 1.04-5.66-1.07-9.16c-1.85-3.04-4.88-4.45-6.39-3.08z" fill="url(#IconifyId17ecdb2904d178eab8736)"></path><radialGradient id="IconifyId17ecdb2904d178eab8737" cx="90.894" cy="46.083" r="23.938" gradientUnits="userSpaceOnUse"><stop offset=".223" stop-color="#ff7e8a"></stop><stop offset=".337" stop-color="#ff8290"></stop><stop offset=".483" stop-color="#ff8e9f"></stop><stop offset=".61" stop-color="#ff9cb3"></stop><stop offset=".694" stop-color="#ffa6a8"></stop><stop offset=".84" stop-color="#fec08c"></stop><stop offset="1" stop-color="#fde366"></stop></radialGradient><path d="M90.99 48.5c1.12 1.34 5.38-1.64 12.89-1.59c6.67.04 10.1 2.86 11.38-.31c1.3-3.23-3.46-4.77-11.16-4.21c-7.41.55-14.49 4.48-13.11 6.11z" fill="url(#IconifyId17ecdb2904d178eab8737)"></path><radialGradient id="IconifyId17ecdb2904d178eab8738" cx="95.873" cy="54.233" r="11.167" gradientUnits="userSpaceOnUse"><stop offset=".396" stop-color="#ff7e8a"></stop><stop offset=".575" stop-color="#ff8290"></stop><stop offset=".802" stop-color="#ff8e9f"></stop><stop offset="1" stop-color="#ff9cb3"></stop></radialGradient><path d="M95.67 55.28c.43 1.06 3.47-.32 6.58.41c2.63.61 5.37 2.7 6.3.49c.94-2.21-1.45-4.42-5.78-4.51c-4.3-.08-7.7 2.1-7.1 3.61z" fill="url(#IconifyId17ecdb2904d178eab8738)"></path><radialGradient id="IconifyId17ecdb2904d178eab8739" cx="93.361" cy="60.608" r="23.056" gradientUnits="userSpaceOnUse"><stop offset=".309" stop-color="#ff7e8a"></stop><stop offset=".397" stop-color="#ff8290"></stop><stop offset=".508" stop-color="#ff8e9f"></stop><stop offset=".605" stop-color="#ff9cb3"></stop><stop offset=".69" stop-color="#ffa6a8"></stop><stop offset=".838" stop-color="#fec08c"></stop><stop offset="1" stop-color="#fde366"></stop></radialGradient><path d="M91.24 61.65c.11 1.12 3.75.2 8.26 1.52s6.72 2.91 8.88 4.77c2.17 1.87 4.77 4.62 6.5 2.63c2.09-2.41-1.4-5.09-4.04-6.84c-2.32-1.54-5.78-3.32-11.01-3.7c-5.56-.4-8.69.56-8.59 1.62z" fill="url(#IconifyId17ecdb2904d178eab8739)"></path><radialGradient id="IconifyId17ecdb2904d178eab8740" cx="100.098" cy="68.921" r="24.571" gradientUnits="userSpaceOnUse"><stop offset=".316" stop-color="#ff7e8a"></stop><stop offset=".405" stop-color="#ff8290"></stop><stop offset=".518" stop-color="#ff8e9f"></stop><stop offset=".617" stop-color="#ff9cb3"></stop><stop offset=".699" stop-color="#ffa6a8"></stop><stop offset=".843" stop-color="#fec08c"></stop><stop offset="1" stop-color="#fde366"></stop></radialGradient><path d="M99.46 70.75c.05.89 1.92 1.19 4.23 3.06c2.71 2.2 4.48 4.48 7.04 8.14c1.73 2.48 3.04 5.9 5.43 5.03c2.93-1.06 1-4.87-1.98-8.19c-2.53-2.81-4.11-4.52-7.63-6.6c-2.94-1.73-7.18-3.05-7.09-1.44z" fill="url(#IconifyId17ecdb2904d178eab8740)"></path><radialGradient id="IconifyId17ecdb2904d178eab8741" cx="101.791" cy="79.358" r="18.714" gradientUnits="userSpaceOnUse"><stop offset=".178" stop-color="#ff7e8a"></stop><stop offset=".286" stop-color="#ff8290"></stop><stop offset=".423" stop-color="#ff8e9f"></stop><stop offset=".543" stop-color="#ff9cb3"></stop><stop offset=".611" stop-color="#ffa6a8"></stop><stop offset=".73" stop-color="#fec08c"></stop><stop offset=".861" stop-color="#fde366"></stop></radialGradient><path d="M100.22 80.74c-.77.85.81 1.84 1.92 3.2c1.11 1.36 3.21 4.86 3.95 5.86c1.19 1.62 2.85 1.28 3.61.64c.76-.64 1.02-2.32.07-3.7c-1.4-2.04-4.03-3.96-5.94-5.06c-1.38-.81-2.94-1.68-3.61-.94z" fill="url(#IconifyId17ecdb2904d178eab8741)"></path><radialGradient id="IconifyId17ecdb2904d178eab8742" cx="91.895" cy="79.998" r="34.34" gradientUnits="userSpaceOnUse"><stop offset="0" stop-color="#ff7e8a"></stop><stop offset=".158" stop-color="#ff8290"></stop><stop offset=".36" stop-color="#ff8e9f"></stop><stop offset=".536" stop-color="#ff9cb3"></stop><stop offset=".62" stop-color="#ffa6a8"></stop><stop offset=".768" stop-color="#fec18b"></stop><stop offset=".922" stop-color="#fde366"></stop></radialGradient><path d="M88.32 79.89c-.48.7.57 1.32 2.01 3.31c1.48 2.05 3.47 4.55 5.5 11.37c2.11 7.09 2.39 12.55 2.56 14.05c.28 2.37 1.01 4 3.17 4c1.79 0 2.45-2.21 2.27-5.5c-.2-3.61-1.21-9.48-3.89-15.26c-3.25-7.03-6.84-9.88-7.7-10.57c-1.19-.93-3.13-2.55-3.92-1.4z" fill="url(#IconifyId17ecdb2904d178eab8742)"></path><radialGradient id="IconifyId17ecdb2904d178eab8743" cx="81.09" cy="78.864" r="30.75" gradientUnits="userSpaceOnUse"><stop offset=".304" stop-color="#ff7e8a"></stop><stop offset=".348" stop-color="#ff818e"></stop><stop offset=".756" stop-color="#ff9cb3"></stop><stop offset=".804" stop-color="#ffa3ac"></stop><stop offset=".876" stop-color="#feb598"></stop><stop offset=".961" stop-color="#fdd377"></stop><stop offset="1" stop-color="#fde366"></stop></radialGradient><path d="M77.76 76.03c-.97.55.08 1.86.97 3.57s3.74 7.49 4.82 12.07c1.22 5.15 1.5 8.18 1.66 10.66c.1 1.54.64 3.23 2.71 3.2c2.63-.04 2.45-3.95 1.81-7.86c-.98-5.99-3.03-10.44-5.36-14.38c-1.86-3.16-2.6-4.29-3.81-5.59c-1.13-1.22-2.15-2.04-2.8-1.67z" fill="url(#IconifyId17ecdb2904d178eab8743)"></path><path d="M88.83 108.68c-2.07-.27-2.89 1.76-2.97 3.02c-.11 1.69.74 3.02 2.4 3.14c2.11.16 2.78-1.47 2.85-3.25c.03-.98-.1-2.62-2.28-2.91z" fill="#ffdd74"></path><radialGradient id="IconifyId17ecdb2904d178eab8744" cx="75.003" cy="98.131" r="18.05" gradientUnits="userSpaceOnUse"><stop offset=".126" stop-color="#ff7e8a"></stop><stop offset=".302" stop-color="#ff8a9b"></stop><stop offset=".598" stop-color="#ff9cb3"></stop><stop offset=".731" stop-color="#ff9eb0"></stop><stop offset=".811" stop-color="#ffa6a8"></stop><stop offset=".878" stop-color="#feb39a"></stop><stop offset=".937" stop-color="#fec685"></stop><stop offset=".991" stop-color="#fdde6b"></stop><stop offset="1" stop-color="#fde366"></stop></radialGradient><path d="M78.81 97.51c-1.09.07-1.06 2.96-1.83 7.74s-2.54 8.56.67 9.39c3.29.85 3.17-5.98 3-9.57c-.13-2.53-.46-7.65-1.84-7.56z" fill="url(#IconifyId17ecdb2904d178eab8744)"></path><radialGradient id="IconifyId17ecdb2904d178eab8745" cx="59.556" cy="92.928" r="17.575" gradientUnits="userSpaceOnUse"><stop offset=".126" stop-color="#ff7e8a"></stop><stop offset=".302" stop-color="#ff8a9b"></stop><stop offset=".598" stop-color="#ff9cb3"></stop><stop offset=".731" stop-color="#ff9eb0"></stop><stop offset=".811" stop-color="#ffa6a8"></stop><stop offset=".878" stop-color="#feb39a"></stop><stop offset=".937" stop-color="#fec685"></stop><stop offset=".991" stop-color="#fdde6b"></stop><stop offset="1" stop-color="#fde366"></stop></radialGradient><path d="M57.26 93.61c-1.31-.23-3.05 3.47-3.81 7.39c-.85 4.36-1.09 7.56 1.38 7.84c2.26.26 2.3-3.8 2.48-7.89c.24-5.46.83-7.18-.05-7.34z" fill="url(#IconifyId17ecdb2904d178eab8745)"></path><radialGradient id="IconifyId17ecdb2904d178eab8746" cx="48.065" cy="90.288" r="23.627" gradientUnits="userSpaceOnUse"><stop offset=".318" stop-color="#ff7e8a"></stop><stop offset=".53" stop-color="#ff93a7"></stop><stop offset=".612" stop-color="#ff9cb3"></stop><stop offset=".699" stop-color="#ffaaa4"></stop><stop offset=".866" stop-color="#fecf7b"></stop><stop offset=".945" stop-color="#fde366"></stop></radialGradient><path d="M53.88 87.95c-.98-.79-7.18 5.1-8.4 13.91c-1.01 7.31-.74 15.39 3.16 14.79s.57-7.09 1.62-15.47c1.22-9.61 4.8-12.29 3.62-13.23z" fill="url(#IconifyId17ecdb2904d178eab8746)"></path><radialGradient id="IconifyId17ecdb2904d178eab8747" cx="37.694" cy="85.572" r="22.996" gradientUnits="userSpaceOnUse"><stop offset=".396" stop-color="#ff7e8a"></stop><stop offset=".485" stop-color="#ff8290"></stop><stop offset=".598" stop-color="#ff8e9f"></stop><stop offset=".696" stop-color="#ff9cb3"></stop><stop offset=".744" stop-color="#ffa6a8"></stop><stop offset=".829" stop-color="#fec08c"></stop><stop offset=".922" stop-color="#fde366"></stop></radialGradient><path d="M44.81 79.68c-.94-1.14-7.1 3.42-10.57 10.13c-3.02 5.85-4.24 11-4.82 15.67c-.41 3.29.54 6.25 3.09 6.12c2.08-.11 2.51-2.42 2.71-7.73c.27-6.99 2.27-12.31 4.57-16.67c1.97-3.7 5.76-6.62 5.02-7.52z" fill="url(#IconifyId17ecdb2904d178eab8747)"></path><radialGradient id="IconifyId17ecdb2904d178eab8748" cx="34.037" cy="81.315" r="18.742" gradientUnits="userSpaceOnUse"><stop offset=".233" stop-color="#ff7e8a"></stop><stop offset=".369" stop-color="#ff8a9b"></stop><stop offset=".598" stop-color="#ff9cb3"></stop><stop offset=".731" stop-color="#ff9eb0"></stop><stop offset=".811" stop-color="#ffa6a8"></stop><stop offset=".878" stop-color="#feb39a"></stop><stop offset=".937" stop-color="#fec685"></stop><stop offset=".991" stop-color="#fdde6b"></stop><stop offset="1" stop-color="#fde366"></stop></radialGradient><path d="M31.84 80.69c-1.16-.82-4.42 2.7-6.3 5.52c-1.88 2.82-4.52 7.59-1.56 8.73c3.45 1.33 3.58-3.69 4.79-6.38c1.98-4.4 4.05-7.17 3.07-7.87z" fill="url(#IconifyId17ecdb2904d178eab8748)"></path><radialGradient id="IconifyId17ecdb2904d178eab8749" cx="32.439" cy="71.202" r="29.427" gradientUnits="userSpaceOnUse"><stop offset=".35" stop-color="#ff7e8a"></stop><stop offset=".43" stop-color="#ff8290"></stop><stop offset=".533" stop-color="#ff8e9f"></stop><stop offset=".622" stop-color="#ff9cb3"></stop><stop offset=".687" stop-color="#ffa6a8"></stop><stop offset=".799" stop-color="#fec08c"></stop><stop offset=".922" stop-color="#fde366"></stop></radialGradient><path d="M35.13 70.41c.87 1.34-4.75 3.06-11.21 11.99c-6.55 9.07-4.79 16.64-8.96 16.04c-4.27-.62-.87-9.91 4.7-17.54c6.01-8.22 14.69-11.7 15.47-10.49z" fill="url(#IconifyId17ecdb2904d178eab8749)"></path><radialGradient id="IconifyId17ecdb2904d178eab8750" cx="29.069" cy="63.76" r="28.957" gradientUnits="userSpaceOnUse"><stop offset=".29" stop-color="#ff7e8a"></stop><stop offset=".397" stop-color="#ff8290"></stop><stop offset=".533" stop-color="#ff8e9f"></stop><stop offset=".652" stop-color="#ff9cb3"></stop><stop offset=".71" stop-color="#ffa6a8"></stop><stop offset=".811" stop-color="#fec08c"></stop><stop offset=".922" stop-color="#fde366"></stop></radialGradient><path d="M11.52 80.71c1.68 1.34 3.13.32 4.64-1.75c2.02-2.76 5.13-5.93 7.33-7.9c3.16-2.82 8.06-5.31 7.46-6.35c-.56-.96-5.09.11-10.61 3.81c-5.36 3.6-7.36 6.03-8 6.87c-.89 1.16-3.12 3.48-.82 5.32z" fill="url(#IconifyId17ecdb2904d178eab8750)"></path><radialGradient id="IconifyId17ecdb2904d178eab8751" cx="30.747" cy="57.895" r="18.787" gradientUnits="userSpaceOnUse"><stop offset=".357" stop-color="#ff7e8a"></stop><stop offset=".445" stop-color="#ff8290"></stop><stop offset=".557" stop-color="#ff8e9f"></stop><stop offset=".654" stop-color="#ff9cb3"></stop><stop offset=".711" stop-color="#ffa6a8"></stop><stop offset=".81" stop-color="#fec08c"></stop><stop offset=".918" stop-color="#fde366"></stop></radialGradient><path d="M15.31 63.76c1.17 1.59 3.36.81 4.64-.27c1.28-1.08 3.31-2.5 5.74-3.54c2.44-1.04 4.45-.67 4.34-2.24c-.08-1.21-5.38-1.37-10.72.7c-4.94 1.91-4.95 4.07-4 5.35z" fill="url(#IconifyId17ecdb2904d178eab8751)"></path><radialGradient id="IconifyId17ecdb2904d178eab8752" cx="35.643" cy="50.657" r="27.486" gradientUnits="userSpaceOnUse"><stop offset=".334" stop-color="#ff7e8a"></stop><stop offset=".427" stop-color="#ff8290"></stop><stop offset=".545" stop-color="#ff8e9f"></stop><stop offset=".648" stop-color="#ff9cb3"></stop><stop offset=".696" stop-color="#ffa6a8"></stop><stop offset=".778" stop-color="#fec08c"></stop><stop offset=".869" stop-color="#fde366"></stop></radialGradient><path d="M32.98 50.78c-.29 1.25-3.85-.82-11.4-.01c-6.77.73-13.5 5.8-14.94 2.23c-1.94-4.81 7.29-6.64 13.81-6.57s13.01 2.29 12.53 4.35z" fill="url(#IconifyId17ecdb2904d178eab8752)"></path><radialGradient id="IconifyId17ecdb2904d178eab8753" cx="36.122" cy="43.924" r="24.333" gradientUnits="userSpaceOnUse"><stop offset=".272" stop-color="#ff7e8a"></stop><stop offset=".372" stop-color="#ff8290"></stop><stop offset=".499" stop-color="#ff8e9f"></stop><stop offset=".61" stop-color="#ff9cb3"></stop><stop offset=".677" stop-color="#ffa6a8"></stop><stop offset=".794" stop-color="#fec08c"></stop><stop offset=".922" stop-color="#fde366"></stop></radialGradient><path d="M38.63 45.68c-.76.7-2.45-1.43-6.7-2.97c-4.01-1.45-6.69-2.31-11.26-2.37s-7.64 2.25-8.78-.64s1.49-4.67 8.35-4.48c7.95.22 12.43 3.16 15.14 5.23c1.98 1.5 4.17 4.38 3.25 5.23z" fill="url(#IconifyId17ecdb2904d178eab8753)"></path><radialGradient id="IconifyId17ecdb2904d178eab8754" cx="48.811" cy="41.149" r="18.464" gradientUnits="userSpaceOnUse"><stop offset=".396" stop-color="#ff7e8a"></stop><stop offset=".758" stop-color="#ff9cb3"></stop><stop offset=".812" stop-color="#ffa7a7"></stop><stop offset=".908" stop-color="#fec389"></stop><stop offset="1" stop-color="#fde366"></stop></radialGradient><path d="M49.45 42.79c-1.23.92-4.82-3.96-9.45-6.98c-2.95-1.93-8.29-2.27-7.28-5.92c1-3.61 5.55-1.82 9.68 1.55c5 4.07 8.5 10.26 7.05 11.35z" fill="url(#IconifyId17ecdb2904d178eab8754)"></path><radialGradient id="IconifyId17ecdb2904d178eab8755" cx="54.931" cy="35.652" r="27.141" gradientUnits="userSpaceOnUse"><stop offset=".666" stop-color="#ff7e8a"></stop><stop offset=".723" stop-color="#ff8488"></stop><stop offset=".796" stop-color="#ff9382"></stop><stop offset=".877" stop-color="#feae79"></stop><stop offset=".965" stop-color="#fdd26c"></stop><stop offset="1" stop-color="#fde366"></stop></radialGradient><path d="M29.55 15.03c-.93 2.19.57 4 3.63 4.71c3.27.76 6.88 3.09 9.74 5.42c3.31 2.7 5.73 5.6 7.36 7.97c1.2 1.74 2.38 3.73 3.19 3.46s.53-2.15-.21-4.1c-.74-1.95-3.2-8.19-10.01-13.85c-5.21-4.32-11.75-8.18-13.7-3.61z" fill="url(#IconifyId17ecdb2904d178eab8755)"></path><path d="M23.77 27.4c-.11 1.62 1.14 2.9 3.16 3.02c1.49.09 3.7-.27 3.83-2.42c.13-2.01-1.28-3.36-3.56-3.36c-1.75 0-3.29.74-3.43 2.76z" fill="#fede6a"></path><radialGradient id="IconifyId17ecdb2904d178eab8756" cx="60.09" cy="34.036" r="15.878" gradientUnits="userSpaceOnUse"><stop offset=".666" stop-color="#ff7e8a"></stop><stop offset=".723" stop-color="#ff8488"></stop><stop offset=".796" stop-color="#ff9382"></stop><stop offset=".877" stop-color="#feae79"></stop><stop offset=".965" stop-color="#fdd26c"></stop><stop offset="1" stop-color="#fde366"></stop></radialGradient><path d="M53.88 18.32c-1.76 1.24-.35 3.44 1.2 6s3.84 8.05 5.59 7.58s-1.21-8.27-1.88-10.22s-2.42-5.11-4.91-3.36z" fill="url(#IconifyId17ecdb2904d178eab8756)"></path><radialGradient id="IconifyId17ecdb2904d178eab8757" cx="65.243" cy="42.953" r="24.119" gradientUnits="userSpaceOnUse"><stop offset=".666" stop-color="#ff7e8a"></stop><stop offset=".723" stop-color="#ff8488"></stop><stop offset=".796" stop-color="#ff9382"></stop><stop offset=".877" stop-color="#feae79"></stop><stop offset=".965" stop-color="#fdd26c"></stop><stop offset="1" stop-color="#fde366"></stop></radialGradient><path d="M65.71 40.64c1.9.24 1.95-7.39 4.17-14.52s5.11-10.75 2.22-11.83s-5.26 2.71-6.62 9.95c-1.21 6.45-1.45 16.18.23 16.4z" fill="url(#IconifyId17ecdb2904d178eab8757)"></path><radialGradient id="IconifyId17ecdb2904d178eab8758" cx="74.327" cy="35.056" r="27.551" gradientUnits="userSpaceOnUse"><stop offset=".666" stop-color="#ff7e8a"></stop><stop offset=".723" stop-color="#ff8488"></stop><stop offset=".796" stop-color="#ff9382"></stop><stop offset=".877" stop-color="#feae79"></stop><stop offset=".965" stop-color="#fdd26c"></stop><stop offset="1" stop-color="#fde366"></stop></radialGradient><path d="M75.26 33.91c1.57.94 2.98-5.83 8.46-10.9c7.26-6.72 14.01-6.22 12.92-9.66c-.65-2.05-5.94-1.75-10.71 1.62c-4.88 3.45-6.97 6.72-9.06 11.09c-1.38 2.88-2.72 7.19-1.61 7.85z" fill="url(#IconifyId17ecdb2904d178eab8758)"></path><radialGradient id="IconifyId17ecdb2904d178eab8759" cx="80.555" cy="34.424" r="25.355" gradientUnits="userSpaceOnUse"><stop offset=".666" stop-color="#ff7e8a"></stop><stop offset=".723" stop-color="#ff8488"></stop><stop offset=".796" stop-color="#ff9382"></stop><stop offset=".877" stop-color="#feae79"></stop><stop offset=".965" stop-color="#fdd26c"></stop><stop offset="1" stop-color="#fde366"></stop></radialGradient><path d="M81.64 36.27c1.07.73 3.96-2.91 6.72-5.18c3.86-3.18 7.88-5.17 12.47-6.52c4.62-1.35 7.98-1.05 7.49-3.97c-.54-3.22-5.79-2.1-9.49-.65c-5.03 1.98-9.53 4.39-12.89 8.2c-2.74 3.12-5.08 7.58-4.3 8.12z" fill="url(#IconifyId17ecdb2904d178eab8759)"></path><radialGradient id="IconifyId17ecdb2904d178eab8760" cx="88.893" cy="42.059" r="21.825" gradientUnits="userSpaceOnUse"><stop offset=".109" stop-color="#ff7e8a"></stop><stop offset=".227" stop-color="#ff8290"></stop><stop offset=".377" stop-color="#ff8e9f"></stop><stop offset=".507" stop-color="#ff9cb3"></stop><stop offset=".613" stop-color="#ffa6a8"></stop><stop offset=".798" stop-color="#fec08c"></stop><stop offset="1" stop-color="#fde366"></stop></radialGradient><path d="M85.47 45.14c1.3 1.01 2.6-1.99 6.07-4.34c3.09-2.09 5.55-3.58 8.84-4.59c2.82-.86 7.27-.75 6.46-3.24c-.71-2.19-5.1-2.18-8.52-.92c-3.27 1.2-6.45 3.49-8.91 6.06c-1.98 2.09-4.91 6.27-3.94 7.03z" fill="url(#IconifyId17ecdb2904d178eab8760)"></path><path d="M56.8 60.5c0 .95 3.43.94 4.92 2.29c1.99 1.8 2.14 4.14 3.04 4.14c.89 0 1.5-3.47 3.17-4.76c1.68-1.29 4.64-1.34 4.59-2.18s-3.61-.82-5.42-2.46c-1.59-1.44-1.81-3.75-2.52-3.74c-.82.01-.59 2.4-2.91 4.25c-2.46 1.95-4.87 1.51-4.87 2.46z" fill="#fffffd"></path><path d="M31.51 113.75c-2.08.06-2.54 2.02-2.44 3.21c.13 1.61 1.23 2.71 2.89 2.63c1.97-.1 2.35-1.74 2.16-3.43c-.11-.92-.77-2.46-2.61-2.41z" fill="#ffdd74"></path><path d="M77.69 40.58c-.15 1.62.66 2.32 1.98 2.32c1.51 0 2.09-1.08 2.05-2.13c-.03-.89-.5-1.9-1.94-1.98c-1.12-.06-1.97.55-2.09 1.79z" fill="#fffefd"></path><path d="M89.23 56.44c-.11 1.36.61 2.62 1.96 2.62c1.54 0 2.17-1.26 2.13-2.33c-.03-.91-.36-2.17-1.82-2.25c-1.15-.07-2.17.7-2.27 1.96z" fill="#fffefd"></path><path d="M52.65 39.8c-.22 1.39.63 2.46 1.95 2.38c1.63-.1 2.17-1.24 2.13-2.34c-.04-.93-.72-1.93-1.93-1.93s-1.94.6-2.15 1.89z" fill="#fffefd"></path><path d="M36.28 53.19c-.17 1.73.82 2.54 2.26 2.54c1.65 0 2.3-1.36 2.25-2.48c-.04-.95-.55-2.03-2.11-2.11c-1.23-.06-2.28.72-2.4 2.05z" fill="#fffefd"></path><path d="M32.59 66.28c-.16 1.83.76 2.6 2.13 2.6c1.57 0 2.17-1.23 2.13-2.41c-.03-1.01-.52-2.15-2.01-2.24c-1.17-.07-2.13.64-2.25 2.05z" fill="#fffefd"></path><path d="M39.18 75.08c-.81 1.39-.55 2.63.53 3.14c1.25.59 2.37-.45 2.78-1.4c.35-.81.5-2.04-.65-2.67c-.89-.49-2.04-.13-2.66.93z" fill="#fffefd"></path><path d="M45.72 85.02c-.15 1.67.66 2.42 1.97 2.42c1.5 0 2.09-1.1 2.06-2.18c-.03-.92-.53-2.17-1.96-2.17c-1.13 0-1.96.65-2.07 1.93z" fill="#fffefd"></path><path d="M57.57 88.06c-.31 1.45.45 2.57 1.8 2.69c1.55.14 2.2-.95 2.33-2.06c.11-1.02-.34-2.29-1.81-2.43c-1.16-.1-2.04.5-2.32 1.8z" fill="#fffefd"></path><path d="M69.99 92.59c-.17 1.78.82 2.74 2.27 2.74c1.67 0 2.25-1.33 2.21-2.48c-.04-.98-.3-2.47-2.21-2.54c-1.25-.05-2.14.92-2.27 2.28z" fill="#fffefd"></path><path d="M83.62 76.76c-.15 1.57.83 2.24 1.94 2.28c1.48.05 2.07-1.03 2.03-2.05c-.03-.86-.52-2.04-1.93-2.04c-1.11.01-1.92.61-2.04 1.81z" fill="#fffefd"></path><path d="M92.52 72.56c.04 1.5.84 2.29 2.23 2.21c1.38-.08 1.89-1.24 1.73-2.53c-.13-1.07-.94-2.05-2.25-1.87c-1.03.14-1.75.86-1.71 2.19z" fill="#fffefd"></path><path d="M96.34 12.46c-.21 2.21.93 3.17 2.78 3.17c2.13 0 2.94-1.48 2.89-2.9c-.05-1.21-.71-2.54-2.73-2.69c-1.62-.13-2.78.73-2.94 2.42z" fill="#fffefd"></path><path d="M111.78 19.23c-1.94-.7-2.99-.15-3.55 1.34c-.64 1.69.5 2.84 1.78 3.21c1.08.32 2.48.18 3.12-1.44c.49-1.26-.15-2.67-1.35-3.11z" fill="#fffefd"></path><path d="M117.04 48.12c-.31 1.77.71 2.7 2.03 2.7c1.51 0 2.31-1.28 2.21-2.56c-.07-.89-.56-1.88-2-1.96c-1.13-.06-2.02.59-2.24 1.82z" fill="#fffefd"></path><path d="M115 70.2c-1.04 1.4-.78 2.93.33 3.62c1.49.92 2.88.16 3.52-.95c.54-.95.73-2.28-.63-3.24c-1.08-.75-2.31-.65-3.22.57z" fill="#fffefd"></path><path d="M115.49 87.77c-.16 1.67.65 2.38 2.02 2.38c1.56 0 2.13-1.35 2.09-2.43c-.03-.92-.52-1.96-2-2.04c-1.17-.06-1.99.81-2.11 2.09z" fill="#fffefd"></path><path d="M102.17 114c-1.76-.09-2.5 1.04-2.44 2.44c.07 1.61 1.43 1.98 2.57 1.89c.97-.07 2.04-.62 2.06-2.15c.01-1.18-.84-2.11-2.19-2.18z" fill="#fffefd"></path><path d="M74.84 116.4c-.17 1.81.78 2.69 2.25 2.69c1.68 0 2.29-1.46 2.25-2.63c-.04-1-.56-2.12-2.16-2.21c-1.25-.07-2.21.76-2.34 2.15z" fill="#fffefd"></path><path d="M46.44 115.99c.24 1.93 1.52 2.58 3.03 2.25c1.74-.38 2.04-2.04 1.72-3.24c-.27-1.03-1.06-2.08-2.73-1.81c-1.3.2-2.2 1.32-2.02 2.8z" fill="#fffefd"></path><path d="M22.5 95.2c-.75 1.43-.26 2.65.94 3.14c1.39.57 2.38-.42 2.74-1.39c.31-.83.25-1.93-1.03-2.54c-1.01-.48-2.08-.3-2.65.79z" fill="#fffefd"></path><path d="M11.82 101.16c.34 1.96 2.06 2.47 3.26 2.02c1.73-.64 2.01-2.19 1.63-3.41c-.32-1.04-1.38-2.22-3.09-1.85c-1.34.29-2.06 1.74-1.8 3.24z" fill="#fffefd"></path><path d="M12.59 63.36c-1.55 1.31-1.3 2.94-.34 3.79c1.1.97 2.75.43 3.59-.58c.72-.86 1.17-2.38.07-3.45c-.79-.77-2.13-.77-3.32.24z" fill="#fffefd"></path><path d="M10.52 37.87c-.96 1.36-.42 3.08 1.08 3.85c1.46.74 3.13-.26 3.66-1.46c.45-1.03.46-2.43-1.15-3.32c-1.26-.7-2.69-.35-3.59.93z" fill="#fffefd"></path><path d="M24.81 14.97c-.5 2.03.49 3.17 2.16 3.42c1.91.29 2.91-1.21 3.06-2.55c.13-1.14-.27-2.51-2.07-2.88c-1.4-.3-2.76.45-3.15 2.01z" fill="#fffefd"></path><path d="M49.28 15.44c-.15 1.71 1.07 2.62 2.38 2.62c1.5 0 2.47-.97 2.52-2.29c.04-.94-.63-2.24-2.24-2.41c-1.26-.14-2.55.77-2.66 2.08z" fill="#fffefd"></path><path d="M70.64 12.51c-.18 1.86 1.02 2.86 2.55 2.86c1.76 0 2.41-1.35 2.37-2.55c-.04-1.02-.54-2.28-2.21-2.37c-1.32-.06-2.58.64-2.71 2.06z" fill="#fffefd"></path></svg>