
<svg width="1024" height="300" version="1.1" viewBox="0 0 270.93 79.375" xml:space="preserve"
  xmlns="http://www.w3.org/2000/svg"><text transform="scale(.96207 1.0394)" x="87.974998" y="49.252449" fill="currentColor" font-family="Dubai" font-size="44.473px" font-weight="bold" letter-spacing="-.82832px" stroke-width=".26506" xml:space="preserve"><tspan x="87.974998" y="49.252449" font-family="Dubai" font-size="44.473px" font-weight="bold" stroke-width=".26506">Gearotons</tspan></text><path d="m46.398 78.575c-2.0316 0.0051-2.3023-0.29213-3.6724-4.0265-1.4344-3.9096-1.6176-4.0914-6.0616-6.0154-4.5825-1.9839-4.5825-1.9839-8.022 0.11935-3.4396 2.1032-3.4396 2.1032-9.3206-3.7717-5.881-5.875-5.881-5.875-3.9288-9.5533 1.9522-3.6783 1.9522-3.6783 0.1952-7.8753-0.96635-2.3084-2.1712-4.4335-2.6775-4.7225-0.5063-0.289-2.4636-1.1599-4.3496-1.9353-3.2651-1.3424-3.4081-1.5137-2.9915-3.5841 0.24067-1.1959 0.43758-4.181 0.43758-6.6336 0-4.4593 0-4.4593 3.3848-4.4593 1.8617 0 3.8719-0.39347 4.4672-0.87438 0.59531-0.48091 1.7542-1.9967 2.5753-3.3685 1.4929-2.4941 1.4929-2.4941-0.24397-5.0343-0.95528-1.3971-1.7369-2.7078-1.7369-2.9128 0-0.20496 1.2977-1.0306 2.8837-1.8347 1.586-0.8041 2.9322-1.3521 2.9915-1.2179 0.05927 0.1343 2.6258 2.8233 5.7033 5.9757 5.5956 5.7315 5.5956 5.7315 4.1296 7.3243-0.80628 0.87604-2.0373 2.6945-2.7355 4.041-0.85115 1.6414-1.2825 4.0619-1.3088 7.3448-0.03101 3.8622 0.34634 5.716 1.7863 8.7757 1.0041 2.1336 2.8428 5.0305 4.086 6.4376 1.2432 1.4071 4.1579 3.5007 6.477 4.6524 2.3191 1.1517 5.6638 2.3096 7.4326 2.5732 1.8322 0.27304 4.8225 0.12204 6.9495-0.35106 2.0534-0.45668 4.9807-1.7282 6.5052-2.8257 2.7717-1.9953 2.7717-1.9953 8.5433 3.7704 5.7716 5.7657 5.7716 5.7657 4.2495 8.3294-0.83715 1.4101-1.6656 2.5637-1.841 2.5637-0.17541 0-1.523-0.68869-2.9947-1.5304-2.6758-1.5304-2.6758-1.5304-4.6336 0-1.0768 0.84174-2.3532 1.5304-2.8366 1.5304-0.48334 0-1.0698 0.70825-1.3032 1.5739-0.23343 0.86562-0.42875 2.7088-0.43403 4.0959-0.0093 2.522-0.0093 2.522-4.7608 2.9679-2.6131 0.24526-5.7381 0.44817-6.9444 0.4509zm36.502-27.834c-0.93402 0.92821-1.5689 1.1399-1.8867 0.62895-0.2634-0.42353-1.0446-0.77005-1.736-0.77005-0.69142 0-1.8304-0.62956-2.5311-1.399-0.7007-0.76945-2.1261-1.399-3.1674-1.399-1.0414 0-2.4727 0.63607-3.1806 1.4135-1.2863 1.4125-1.2885 1.4122-3.2765-0.48063-1.0941-1.0417-1.9894-2.4099-1.9894-3.0403s0.73187-1.8295 1.6264-2.6646c1.6264-1.5184 1.6264-1.5184 4.0081 0.22782 1.3099 0.96044 2.8744 1.7232 3.4767 1.6951 0.60227-0.02818 2.0453-0.6542 3.2067-1.3913 1.1614-0.73709 2.5116-1.5362 3.0004-1.7759 0.48885-0.23964 1.3564-0.05008 1.9279 0.42131 0.5715 0.47136 0.85755 1.1489 0.63567 1.5057-0.22187 0.35678-1.0102 0.4573-1.7519 0.22336-0.92192-0.2908-1.3485-0.09156-1.3485 0.62976 0 0.58031 0.31674 1.2496 0.70387 1.4874 0.38713 0.23778 0.70388 1.0818 0.70388 1.8757 0 1.1632 0.19276 1.2844 0.99315 0.62426 0.74594-0.61524 1.1176-0.619 1.4932-0.01512 0.27501 0.44221-0.13347 1.4336-0.90773 2.203zm-33.419-0.17369c-2.4942-0.0219-4.7694-0.58322-6.9596-1.717-1.7897-0.92642-4.134-2.7217-5.2098-3.9896-1.0757-1.2678-2.383-3.3181-2.905-4.5561-0.52203-1.238-0.94915-3.5358-0.94915-5.1061 0-1.5704 0.48048-3.7786 1.0677-4.9071 0.58725-1.1286 1.9969-2.5294 3.1325-3.113 1.1356-0.5836 3.599-1.0611 5.4743-1.0611 2.5935 0 4.3275 0.54518 7.2452 2.2778 2.7683 1.644 4.4873 3.3472 6.1774 6.1206 2.0596 3.3799 2.3064 4.2991 2.0486 7.6305-0.25418 3.2849-0.63309 4.0973-2.8548 6.1206-2.241 2.041-3.0255 2.3289-6.2673 2.3004zm12.88-18.925c-0.21792-0.03905-2.4906-2.1835-5.0503-4.7654-4.6541-4.6943-4.6541-4.6943-2.6395-6.935 1.1789-1.3112 2.0135-3.0341 2.0119-4.1533-0.0012-1.0519-0.65392-2.9742-1.4499-4.2718-0.79601-1.2976-1.2799-2.7928-1.0753-3.3226 0.20461-0.52989 0.80186-0.96344 1.3272-0.96344 0.52536 0 1.6677 0.75374 2.5386 1.675 1.0465 1.107 1.3194 1.8371 0.80498 2.153-0.48652 0.29881-0.60307 1.4413-0.3108 3.0467 0.25719 1.4127 0.87989 3.3792 1.3838 4.3699 0.5039 0.99073 2.1957 2.9501 3.7595 4.3541 1.5638 1.404 3.6604 2.7566 4.659 3.0057 0.9986 0.24909 2.8754 0.28197 4.1706 0.07312 1.8477-0.29798 2.6784-0.03764 3.8566 1.2086 1.3619 1.4407 1.3969 1.6748 0.37617 2.5167-0.94058 0.77576-1.4357 0.75128-3.0149-0.14912-1.0392-0.59252-3.0425-1.2524-4.4518-1.4663-2.1824-0.33129-2.8541-0.0862-4.5309 1.6531-1.0828 1.1231-2.147 2.0101-2.3649 1.971zm-20.936-12.027c-1.3002 0.85791-1.6953 0.76315-3.6565-0.87686-1.2094-1.0113-2.1988-2.2341-2.1988-2.7174 0-0.48325 0.63349-1.4484 1.4078-2.1447 0.77426-0.69634 1.4078-1.7479 1.4078-2.3367 0-0.58885-0.62276-1.7294-1.3839-2.5346-0.76115-0.80518-1.4738-2.5126-1.5837-3.7942-0.13608-1.5871 0.18228-2.5768 0.99822-3.1031 0.65891-0.42508 1.4167-0.55553 1.684-0.28989 0.2673 0.26563 0.08535 0.96274-0.40436 1.5491-0.74878 0.89663-0.65941 1.0662 0.56203 1.0662 0.79882 0 1.6482 0.31477 1.8874 0.69949 0.23926 0.38473 0.92533 0.69951 1.5246 0.69951 0.70682 0 0.93869-0.39078 0.66005-1.1124-0.23624-0.61181-0.24193-1.414-0.01264-1.7827 0.2548-0.40971 0.80303-0.35187 1.41 0.14878 0.54623 0.45052 0.99315 1.2737 0.99315 1.8294 0 0.55566-0.79186 2.042-1.7597 3.303-0.96783 1.261-1.7597 2.7714-1.7597 3.3565 0 0.58507 0.68677 1.9314 1.5261 2.9919 1.1076 1.3993 1.3383 2.2241 0.84103 3.0075-0.37681 0.59367-1.3411 1.5122-2.1428 2.0412z" stroke-width=".70168"/></svg>